<?xml version="1.0" encoding="UTF-8" standalone="no"?>
<svg
   width="1505"
   height="284"
   version="1.1"
   id="svg12"
   sodipodi:docname="ecotowari-logo.svg"
   inkscape:version="1.1.2 (b8e25be8, 2022-02-05)"
   xmlns:inkscape="http://www.inkscape.org/namespaces/inkscape"
   xmlns:sodipodi="http://sodipodi.sourceforge.net/DTD/sodipodi-0.dtd"
   xmlns="http://www.w3.org/2000/svg"
   xmlns:svg="http://www.w3.org/2000/svg">
  <defs
     id="defs16" />
  <sodipodi:namedview
     id="namedview14"
     pagecolor="#ffffff"
     bordercolor="#666666"
     borderopacity="1.0"
     inkscape:pageshadow="2"
     inkscape:pageopacity="0.0"
     inkscape:pagecheckerboard="0"
     showgrid="false"
     inkscape:zoom="0.32815892"
     inkscape:cx="937.046"
     inkscape:cy="821.24845"
     inkscape:window-width="1296"
     inkscape:window-height="1027"
     inkscape:window-x="174"
     inkscape:window-y="113"
     inkscape:window-maximized="0"
     inkscape:current-layer="svg12" />
  <path
     style="fill:#07933d; stroke:none;"
     d="M1478 0.557861C1461.82 4.80206 1458.57 28.7347 1469.33 39.787C1474.63 45.2385 1482.88 46.5003 1490 44.6489C1516.34 37.8004 1505.59 -6.68018 1478 0.557861z"
     id="path4" />
  <path
     style="fill:#ffffff;stroke:none;fill-opacity:0"
     d="M1490 0C1496.38 4.50369 1502.52 8.84875 1504 17C1506.09 12.0261 1505 5.36188 1505 0L1490 0z"
     id="path6" />
  <path
     style="fill:#07933d; stroke:none;"
     d="M580 30L580 79L551 79L551 107L580 107L580 205C580 224.686 578.661 246.249 588.88 264C599.312 282.121 618.206 284.22 637 283.996C642.316 283.933 654.602 283.333 657.971 278.49C659.823 275.829 658.448 271.92 658.17 269C657.593 262.938 658.12 257.035 657 251C646.337 252.377 633.223 256.316 624.015 248.66C612.104 238.755 613 221.008 613 207L613 107L661 107L661 79L613 79L613 21C601.948 23.5338 591.216 28.3498 580 30M146 245C138.474 246.337 131.529 250.32 124 251.986C96.7612 258.013 65.1793 256.721 46.5177 233C42.0582 227.331 38.9174 220.819 36.6705 214C33.7302 205.076 32.4023 195.37 32 186L161 186C161.889 165.297 162.062 145.958 155.139 126C149.585 109.989 140.282 95.1468 126 85.5201C98.1416 66.7418 55.9709 72.7711 32.0008 95.0903C4.40841 120.782 -1.52994 160.162 0.0393519 196C1.77118 235.55 27.1765 273.351 67 281.985C87.6735 286.468 110.645 284.586 131 279.37C135.916 278.111 148.186 275.845 150.357 270.61C151.306 268.323 150.255 265.295 149.8 263C148.608 256.983 147.168 251.022 146 245M328 244C313.398 249.991 299.985 254.377 284 253.985C258.614 253.363 237.804 235.023 229.066 212C215.092 175.186 227.068 121.005 268 107.519C288.582 100.738 307.84 106.023 327 114L335 85C322.304 78.2385 307.312 75.0009 293 75C265.568 74.9983 240.656 80.6945 220.039 100.17C190.351 128.215 184.039 174.859 192.576 213C196.431 230.221 204.495 247.316 217.09 259.91C239.874 282.695 274.354 288.107 305 282.195C312.149 280.816 319.222 278.855 326 276.188C328.39 275.248 331.595 274.282 332.802 271.775C334.045 269.192 332.716 265.602 332.119 263C330.67 256.683 329.623 250.275 328 244M429 75.439C420.041 76.8354 411.203 79.4314 403 83.3202C358.926 104.215 346.397 157.597 352.729 202C358.253 240.729 383.472 276.624 424 283.246C432.733 284.673 443.237 284.927 452 283.561C460.992 282.159 469.736 279.504 478 275.691C520.882 255.904 534.838 206.642 530.166 163C525.735 121.615 501.703 82.8944 458 75.7539C448.981 74.2802 438.049 74.0286 429 75.439M762 75.439C753.131 76.8214 744.055 79.2524 736 83.2701C689.893 106.267 676.741 164.114 687.349 211C695.338 246.306 719.788 277.166 757 283.246C765.732 284.673 776.239 284.929 785 283.561C794.275 282.112 803.541 279.28 812 275.216C856.669 253.757 869.574 200.33 862.08 155C855.709 116.459 831.48 82.3679 791 75.7539C781.981 74.2802 771.049 74.0286 762 75.439M1167 117C1173.45 113.983 1179.33 110.089 1186 107.45C1205.8 99.6182 1234.34 97.6467 1248.21 117C1251.22 121.199 1253.18 126.053 1254.57 131C1256.45 137.656 1256.98 145.103 1257 152C1225.13 152 1188.08 155.295 1164.29 179.286C1134.05 209.781 1142.9 272.145 1188 282.764C1206.76 287.181 1227.47 282.721 1243 271.572C1249.35 267.009 1253.89 260.676 1260 256C1260.02 264.067 1261.93 271.944 1262 280L1293 280C1292.7 272.986 1291.35 266.013 1291.04 259C1289.79 230.375 1290 201.687 1290 173C1290 145.622 1291.03 117.45 1272.54 95.0008C1253.02 71.3186 1216.2 71.6609 1189 78.6296C1181.71 80.4964 1174.64 83.2445 1168 86.7816C1165.57 88.077 1162.38 89.5596 1161.12 92.1852C1159.92 94.6837 1161.21 97.5802 1162 100C1163.83 105.618 1165.68 111.236 1167 117M1374 118C1370.46 106.03 1372 91.421 1372 79L1342 79L1343 280L1377 280L1377 244L1377 191C1377 176.834 1376.47 162.826 1380.16 149C1384.38 133.151 1393.8 117.472 1410 111.7C1418.26 108.758 1425.54 109.93 1434 110L1434 75C1426.64 75 1419.16 74.4115 1412 76.4282C1394.3 81.4169 1376.78 99.4411 1374 118M877 79C879.042 94.161 884.853 109.247 888.849 124C897.526 156.037 907.008 187.88 915.371 220C919.028 234.046 922.996 248.049 927 262C928.35 266.704 928.866 274.63 932.139 278.397C933.799 280.307 936.721 279.983 939.001 279.999C945.531 280.044 954.51 281.575 960.775 279.682C964.489 278.561 965.309 273.224 966.28 270C969.2 260.309 972.361 250.69 975.28 241C987.368 200.873 1001 161.228 1009 120C1015.23 138.357 1018.09 158.285 1023.42 177C1033.17 211.205 1044.99 245.362 1053 280L1075 280C1077.78 279.999 1081.96 280.683 1084.07 278.397C1087.59 274.564 1088.46 265.912 1089.86 261C1093.67 247.633 1097.73 234.313 1101.72 221C1115.9 173.711 1130.52 126.495 1144 79L1120 79C1117.3 79.0002 1113.01 78.2497 1110.73 80.0278C1108.04 82.1189 1107.59 87.9064 1106.71 91C1103.8 101.252 1101.21 111.662 1098.63 122C1092.45 146.706 1085.8 171.29 1079.63 196C1075.69 211.741 1070.7 228.739 1070 245C1063.33 225.344 1060.15 204.052 1054.58 184C1044.87 149.075 1033.1 114.329 1025 79L996 79C993.063 93.1909 987.883 107.123 983.72 121C976.232 145.961 968.722 170.938 961.579 196C957.082 211.776 951.306 228.588 950 245C945.188 230.787 943.839 214.692 940.576 200C934.853 174.234 928.267 148.608 921.873 123C919.298 112.687 916.952 102.316 914.373 92C913.54 88.6656 913.165 82.2776 910.272 80.0278C907.986 78.2496 903.697 79.0002 901 79L877 79M1467 79L1467 280L1501 280L1501 79L1467 79z"
     id="path8" />
  <path
     style="fill:#ffffff;stroke:none;fill-opacity:1"
     d="M32 160L130 160C129.902 148.159 127.792 135.755 122.68 125C110.304 98.9666 75.5408 93.3692 54.0147 111.465C40.4868 122.836 33.3594 142.799 32 160M431 102.465C410.035 106.238 396.972 123.855 390.671 143C377.944 181.665 383.877 247.702 433 256.385C439 257.446 445.043 257.036 451 255.905C471.307 252.051 485.034 234.714 491.333 216C500.025 190.172 499.231 160.071 488.421 135C481.071 117.956 466.301 103.442 447 102.09C441.851 101.729 436.089 101.549 431 102.465M764 102.465C743.035 106.238 729.972 123.855 723.671 143C710.944 181.665 716.877 247.702 766 256.385C772 257.446 778.043 257.036 784 255.905C804.247 252.062 818.049 234.67 824.333 216C833.012 190.211 832.223 160.055 821.421 135C814.072 117.956 799.3 103.442 780 102.09C774.851 101.729 769.089 101.549 764 102.465M1258 177C1245.08 177 1231.64 177.303 1219 180.235C1210.93 182.107 1202.79 184.921 1196 189.789C1178.5 202.325 1172.83 234.167 1190.09 249.671C1206.69 264.578 1235.62 256.372 1247.84 239.996C1252.12 234.267 1255.72 228.095 1257.07 221C1259.74 206.91 1258 191.31 1258 177M0 200L0 284L76 284C71.9911 282.2 67.2576 281.926 63 280.703C55.6837 278.601 48.5098 275.501 42 271.536C24.1383 260.656 12.0461 242.563 5.66975 223C3.27073 215.64 3.0056 206.968 0 200z"
     id="path10" />
</svg>
